<?xml version="1.0" encoding="utf-8"?>
<!-- Generator: Adobe Illustrator 16.0.0, SVG Export Plug-In . SVG Version: 6.00 Build 0)  -->
<!DOCTYPE svg PUBLIC "-//W3C//DTD SVG 1.1//EN" "http://www.w3.org/Graphics/SVG/1.1/DTD/svg11.dtd">
<svg version="1.1" id="Layer_1" xmlns="http://www.w3.org/2000/svg" xmlns:xlink="http://www.w3.org/1999/xlink" x="0px" y="0px"
	 width="109.333px" height="17px" viewBox="0 0 109.333 17" enable-background="new 0 0 109.333 17" xml:space="preserve">
<rect x="14.821" y="2.328" fill="#231F20" width="2.796" height="13.357"/>
<polygon fill="#231F20" points="2.2,2.328 5.091,2.328 5.091,7.832 9.312,7.832 9.312,2.328 12.204,2.328 12.204,15.685 
	9.312,15.685 9.312,10.226 5.091,10.226 5.091,15.685 2.2,15.685 "/>
<path fill="#231F20" d="M32.957,4.493c-0.392-0.685-0.94-1.217-1.644-1.596c-0.703-0.38-1.523-0.57-2.461-0.57h-2.574H24.89h-1.406
	v13.358h2.795v-4.203h2.574c0.938,0,1.758-0.188,2.461-0.569c0.703-0.38,1.252-0.911,1.644-1.597
	c0.392-0.685,0.588-1.484,0.588-2.396V6.9C33.545,5.981,33.349,5.179,32.957,4.493 M30.703,6.929c0,0.753-0.222,1.335-0.666,1.745
	c-0.445,0.41-1.068,0.614-1.87,0.614h-1.889V4.55h1.889c0.802,0,1.425,0.202,1.87,0.605c0.444,0.405,0.666,0.989,0.666,1.754V6.929z
	"/>
<path fill="#231F20" d="M43.351,15.686h2.943L41.646,2.327H38.36l-4.637,13.358h2.934l1-3.24h4.695L43.351,15.686z M38.304,10.354
	L39.98,4.92h0.056l1.672,5.434H38.304z"/>
<path fill="#231F20" d="M48.286,2.328h5.517c1,0,1.856,0.171,2.569,0.513c0.713,0.344,1.259,0.832,1.639,1.469
	c0.379,0.635,0.568,1.4,0.568,2.295v0.019c0,0.882-0.217,1.665-0.652,2.347s-1.023,1.168-1.764,1.458l2.814,5.258h-3.175
	l-2.481-4.832h-0.068h-0.07h-2.101v4.832h-2.796V2.328z M53.498,8.725c0.69,0,1.233-0.186,1.629-0.556
	c0.396-0.371,0.593-0.883,0.593-1.537V6.613c0-0.641-0.206-1.15-0.615-1.527c-0.41-0.376-0.959-0.564-1.644-0.564h-2.379v4.203
	H53.498z"/>
<rect x="75.614" y="2.328" fill="#231F20" width="2.796" height="13.357"/>
<polygon fill="#231F20" points="89.798,2.328 89.798,11.011 89.736,11.011 83.706,2.328 81.263,2.328 81.263,15.685 84.05,15.685 
	84.05,6.947 84.107,6.947 90.158,15.685 92.583,15.685 92.583,2.328 "/>
<path fill="#231F20" d="M98.02,15.084c-0.963-0.556-1.705-1.352-2.226-2.389c-0.522-1.037-0.782-2.279-0.782-3.73V8.956
	c0-1.432,0.259-2.658,0.776-3.68c0.52-1.021,1.257-1.807,2.213-2.355c0.957-0.551,2.086-0.824,3.388-0.824
	c1.074,0,2.021,0.19,2.842,0.574c0.821,0.383,1.489,0.901,2.005,1.56c0.516,0.657,0.846,1.405,0.994,2.244l0.028,0.139h-2.813
	l-0.029-0.102c-0.221-0.642-0.592-1.144-1.109-1.504c-0.52-0.361-1.154-0.541-1.906-0.541c-0.736,0-1.367,0.175-1.894,0.526
	c-0.528,0.353-0.933,0.861-1.214,1.528c-0.28,0.666-0.42,1.471-0.42,2.416v0.009c0,0.956,0.147,1.779,0.443,2.468
	c0.297,0.688,0.717,1.216,1.26,1.582c0.543,0.367,1.185,0.551,1.924,0.551c0.605,0,1.14-0.112,1.603-0.337
	c0.463-0.227,0.83-0.543,1.101-0.954c0.272-0.41,0.418-0.891,0.437-1.439l0.009-0.185h-2.898V8.54h5.63v1.535
	c0,1.217-0.237,2.26-0.709,3.129c-0.472,0.87-1.149,1.54-2.031,2.01c-0.883,0.469-1.944,0.703-3.185,0.703
	C100.127,15.917,98.983,15.639,98.02,15.084"/>
<polygon fill="#231F20" points="67.297,2.328 63.534,8.724 67.297,15.685 64.29,15.685 60.526,8.724 64.29,2.328 "/>
<polygon fill="#231F20" points="72.797,2.328 69.034,8.724 72.797,15.685 69.79,15.685 66.027,8.724 69.79,2.328 "/>
</svg>
