<svg width="201" height="24" viewBox="0 0 201 24" fill="none" xmlns="http://www.w3.org/2000/svg">
<path d="M91.072 5.05171C91.072 4.86377 91.2378 4.69794 91.4257 4.69794H97.2517C100.612 4.69794 103.376 7.43957 103.376 10.7671C103.376 14.0947 100.612 16.9248 97.2738 16.9248H92.3433V23.3256C92.3433 23.5135 92.1775 23.6793 91.9121 23.6793H91.4257C91.2378 23.6793 91.072 23.5135 91.072 23.3256V5.05171V5.05171ZM97.1964 15.6755C99.8496 15.6755 102.105 13.4756 102.105 10.745C102.105 8.01444 99.8496 5.96926 97.1743 5.96926H92.3433V15.6755H97.1964V15.6755Z" fill="#FC6C00"/>
<path d="M103.729 23.3475L112.076 4.47666C112.131 4.36611 112.264 4.28874 112.396 4.28874H112.474C112.606 4.28874 112.75 4.31083 112.828 4.47666L121.097 23.3475C121.152 23.5134 121.152 23.6681 120.854 23.6681H120.146C119.958 23.6681 119.825 23.5355 119.77 23.4249L117.57 18.4391H107.212L105.045 23.4249C104.99 23.5355 104.857 23.6681 104.669 23.6681H103.906C103.718 23.6681 103.63 23.5576 103.718 23.3475H103.729ZM117.117 17.3889L112.485 6.46658H112.43L107.709 17.3889H117.117V17.3889Z" fill="#FC6C00"/>
<path d="M124.149 5.05171C124.149 4.86377 124.282 4.69794 124.503 4.69794H131.225C134.53 4.69794 137.272 7.19637 137.272 10.5018C137.272 13.2434 135.37 15.4323 132.794 16.162L136.752 23.1819C136.885 23.403 136.83 23.6683 136.564 23.6683H135.724C135.536 23.6683 135.426 23.5909 135.348 23.4251L131.413 16.3278C131.059 16.3499 130.76 16.3499 130.407 16.3499H125.421V23.3145C125.421 23.5025 125.255 23.6683 124.99 23.6683H124.503C124.315 23.6683 124.149 23.5025 124.149 23.3145V5.04064V5.05171ZM131.169 15.2223C133.767 15.2223 135.967 13.1882 135.967 10.5018C135.967 7.81545 133.767 5.94716 131.136 5.94716H125.443V15.2223H131.158H131.169Z" fill="#FC6C00"/>
<path d="M141.769 5.10697C141.769 4.86376 141.935 4.69794 142.178 4.69794H142.665C142.908 4.69794 143.074 4.86376 143.074 5.10697V13.4866L152.294 4.89692C152.515 4.70899 152.592 4.70897 152.835 4.70897H153.598C153.897 4.70897 153.919 5.00747 153.764 5.1733L144.334 13.9289L154.062 23.2261C154.228 23.3587 154.173 23.6904 153.819 23.6904H152.957C152.714 23.6904 152.581 23.6351 152.36 23.414L143.085 14.4153V23.3366C143.085 23.613 142.897 23.6904 142.676 23.6904H142.134C141.913 23.6904 141.78 23.5577 141.78 23.3366V5.11803L141.769 5.10697Z" fill="#FC6C00"/>
<path d="M157.645 5.05171C157.645 4.86377 157.811 4.69794 157.999 4.69794H158.596C158.784 4.69794 158.949 4.86377 158.949 5.05171V23.3256C158.949 23.5467 158.761 23.6793 158.574 23.6793H158.01C157.822 23.6793 157.656 23.5135 157.656 23.3256V5.05171H157.645Z" fill="#FC6C00"/>
<path d="M164.698 4.77582C164.698 4.55472 164.886 4.42205 165.107 4.42205H165.571L178.583 21.3693H178.605V5.05219C178.605 4.86426 178.771 4.69842 178.959 4.69842H179.501C179.688 4.69842 179.854 4.86426 179.854 5.05219V23.5914C179.854 23.8346 179.633 23.9452 179.423 23.9452H179.069C179.069 23.9452 178.826 23.8678 165.947 6.8431H165.925V23.3261C165.925 23.514 165.759 23.6798 165.571 23.6798H165.052C164.864 23.6798 164.698 23.514 164.698 23.3261V4.78685V4.77582Z" fill="#FC6C00"/>
<path d="M194.049 4.42205C196.79 4.42205 198.847 5.33961 200.604 6.94259C200.737 7.07525 200.77 7.29635 200.626 7.42901C200.494 7.59483 200.328 7.74958 200.195 7.8933C200.029 8.08123 199.897 8.05912 199.731 7.8933C198.216 6.48932 196.238 5.61597 194.016 5.61597C189.295 5.61597 185.581 9.46311 185.581 14.1504C185.581 18.8377 189.295 22.6849 194.016 22.6849C197.321 22.6849 199.388 21.4136 199.654 21.1925V16.0961H195.022C194.723 16.0961 194.668 15.9856 194.668 15.7424V15.2007C194.668 14.9796 194.723 14.8801 195.022 14.8801H200.582C200.77 14.8801 200.936 15.0459 200.936 15.2007V21.491C200.936 21.9 200.77 22.0326 200.56 22.1985C200.074 22.5191 197.608 23.9341 194.049 23.9341C188.599 23.9341 184.232 19.6558 184.232 14.2057C184.232 8.75561 188.599 4.42205 194.049 4.42205V4.42205Z" fill="#FC6C00"/>
<path d="M23.7353 5.07384C23.7353 4.75325 24.0227 4.45477 24.3544 4.45477H27.4277C27.7814 4.45477 28.0468 4.74219 28.0468 5.07384V14.8796C28.0468 17.6213 29.9261 19.788 32.7341 19.788C35.542 19.788 37.4546 17.6213 37.4546 14.9128V5.07384C37.4546 4.75325 37.7088 4.45477 38.0736 4.45477H41.1469C41.4675 4.45477 41.766 4.74219 41.766 5.07384V15.1118C41.766 20.0202 37.8525 24 32.7562 24C27.6598 24 23.7795 20.0312 23.7795 15.1118V5.07384H23.7353Z" fill="#FC6C00"/>
<path d="M61.0356 5.07384C61.0356 4.75325 61.323 4.45477 61.6547 4.45477H64.728C65.0817 4.45477 65.3471 4.74219 65.3471 5.07384V14.8796C65.3471 17.6213 67.2264 19.788 70.0344 19.788C72.8423 19.788 74.7549 17.6213 74.7549 14.9128V5.07384C74.7549 4.75325 75.0091 4.45477 75.3739 4.45477H78.4472C78.7678 4.45477 79.0663 4.74219 79.0663 5.07384V15.1118C79.0663 20.0202 75.1528 24 70.0565 24C64.9601 24 61.0798 20.0312 61.0798 15.1118V5.07384H61.0356Z" fill="#FC6C00"/>
<path d="M56.8345 4.13476H49.3945C47.5815 4.13476 46.1112 5.60508 46.1112 7.4181C46.1112 7.4181 46.1112 7.41811 46.1112 7.42916V23.0499C46.1112 23.3926 46.3876 23.6579 46.7192 23.6579H49.7262C50.0689 23.6579 50.3342 23.3815 50.3342 23.0499V8.00401H56.8235C57.1551 8.00401 57.4204 7.73868 57.4204 7.40703V4.72068C57.4204 4.38903 57.1551 4.1237 56.8235 4.1237L56.8345 4.13476Z" fill="#FC6C00"/>
<path d="M8.50129 0H6.11341H0.718576C0.309541 0.06633 0 0.409035 0 0.829124V3.05116C0 3.47124 0.309541 3.81397 0.718576 3.86925L0.829124 3.88028H8.50129C9.57362 3.88028 10.4359 3.01799 10.4359 1.94566C10.4359 0.873321 9.57362 0.0110321 8.50129 0.0110321V0Z" fill="#FC6C00"/>
<path d="M18.9932 4.13501H10.4477V8.01532H18.9932C19.4575 8.01532 19.8334 7.63944 19.8334 7.17513V4.96413C19.8334 4.49982 19.4575 4.12394 18.9932 4.12394V4.13501Z" fill="#FC6C00"/>
<path d="M10.6118 4.13468C9.44001 4.13468 8.50034 5.08542 8.50034 6.24619V22.8176C8.50034 23.2819 8.87621 23.6689 9.35157 23.6689H11.8832C12.3475 23.6689 12.7344 23.293 12.7344 22.8176V6.24619C12.7344 5.07436 11.7837 4.13468 10.6229 4.13468H10.6118Z" fill="#FC6C00"/>
<path d="M10.6118 8.3577C11.778 8.3577 12.7233 7.41234 12.7233 6.24619C12.7233 5.08004 11.778 4.13468 10.6118 4.13468C9.44569 4.13468 8.50034 5.08004 8.50034 6.24619C8.50034 7.41234 9.44569 8.3577 10.6118 8.3577Z" fill="#FC6C00"/>
</svg>
